<?xml version="1.0" encoding="UTF-8" standalone="no"?>
<!DOCTYPE svg PUBLIC "-//W3C//DTD SVG 1.1//EN" "http://www.w3.org/Graphics/SVG/1.1/DTD/svg11.dtd">
<svg width="100%" height="100%" viewBox="0 0 32 32" version="1.1" xmlns="http://www.w3.org/2000/svg" xmlns:xlink="http://www.w3.org/1999/xlink" xml:space="preserve" xmlns:serif="http://www.serif.com/" style="fill-rule:evenodd;clip-rule:evenodd;stroke-linejoin:round;stroke-miterlimit:2;">
    <g transform="matrix(0.0656569,0,0,0.0656569,15.94,16)">
        <g transform="matrix(1,0,0,1,-360,-360)">
            <g transform="matrix(0.24,0,0,0.24,0,0)">
                <g transform="matrix(2.37582,0,0,2.4561,-2096.57,-1474.13)">
                    <path d="M1322.99,961.473L1324.09,962.107C1272.77,1036.79 1255.21,1127.73 1264.68,1231.19L1311.6,1249.45L1307.96,1392.15C1324.39,1400.69 1352.77,1404.51 1375.72,1402.85L1384.88,1505.7C1498.47,1495.21 1623.41,1403.18 1633.28,1353.54L1632.28,1237.26C1639.6,1237.45 1646.12,1236.47 1652.18,1234.83L1653.4,1296.01C1691.43,1284.36 1719.55,1259.05 1738.02,1220.44C1746.25,1202.92 1750.49,1184.38 1752.22,1165.18C1755.97,1133.58 1751.82,1101.75 1739.63,1069.7C1733.07,1051.96 1723.22,1033.85 1708.27,1018.3C1713.85,1014.92 1717.63,1010.13 1720.81,1004.87C1728.82,1014.01 1737.29,1025.18 1744.38,1036.91C1756.21,1056.96 1764.83,1076.41 1769.7,1095.29C1772.87,1113.59 1775.23,1131.38 1774.98,1148.85C1775.12,1168.37 1772.82,1186.25 1767.7,1202.59C1760.42,1224.87 1750.31,1245.15 1737.67,1263.65L1785.03,1403.51C1797.98,1452.77 1634.65,1588.04 1553.43,1603.64L1521.58,1486.64C1490.42,1503.23 1457.44,1516.83 1422.14,1526.61C1409.34,1529.1 1395.54,1531.34 1382.9,1527.57C1367.6,1523 1369.69,1521.95 1365.37,1513.39L1357.13,1421.24C1356.45,1424.77 1294.27,1413.72 1284.38,1397.56L1292,1261.42L1248.81,1246.35C1243.02,1219.48 1243.07,1193.25 1242.14,1165.75C1241.56,1148.47 1241.99,1131.1 1243.49,1113.64C1245.88,1089.55 1251.75,1067.64 1259.01,1046.62C1259.01,1046.62 1271.31,1011.72 1280.1,995.718C1284.4,987.889 1310.33,949.377 1310.33,949.377L1311.86,951.522C1314.9,955.432 1318.68,958.813 1322.99,961.473ZM1311.86,951.522C1306.78,944.866 1303.75,936.549 1303.75,927.531C1303.75,905.698 1321.48,887.972 1343.31,887.972C1365.14,887.972 1382.87,905.698 1382.87,927.531C1382.87,949.365 1365.14,967.091 1343.31,967.091C1335.88,967.091 1328.93,965.04 1322.99,961.473C1318.59,958.802 1314.92,955.452 1311.86,951.522ZM1540.86,1478.67L1571.3,1579.98C1662.7,1530.5 1732.23,1471.5 1764.28,1404.06L1721.68,1282.57C1646.08,1309.29 1654.66,1360.92 1654.66,1360.92C1654.66,1360.92 1591.21,1452.3 1540.86,1478.67ZM1342.51,910.319C1331.89,910.319 1323.28,919.123 1323.28,929.968C1323.28,940.812 1331.89,949.617 1342.51,949.617C1353.13,949.617 1361.75,940.812 1361.75,929.968C1361.75,919.123 1353.13,910.319 1342.51,910.319ZM1590.95,818.19C1612.78,818.19 1630.51,835.916 1630.51,857.749C1630.51,879.583 1612.78,897.309 1590.95,897.309C1569.12,897.309 1551.39,879.583 1551.39,857.749C1551.39,835.916 1569.12,818.19 1590.95,818.19ZM1590.15,840.537C1579.53,840.537 1570.91,849.341 1570.91,860.186C1570.91,871.03 1579.53,879.835 1590.15,879.835C1600.77,879.835 1609.38,871.03 1609.38,860.186C1609.38,849.341 1600.77,840.537 1590.15,840.537ZM1589.42,938.725C1611.25,938.725 1628.98,956.451 1628.98,978.284C1628.98,1000.12 1611.25,1017.84 1589.42,1017.84C1567.59,1017.84 1549.86,1000.12 1549.86,978.284C1549.86,956.451 1567.59,938.725 1589.42,938.725ZM1588.62,961.071C1578,961.071 1569.38,969.876 1569.38,980.72C1569.38,991.565 1578,1000.37 1588.62,1000.37C1599.24,1000.37 1607.85,991.565 1607.85,980.72C1607.85,969.876 1599.24,961.071 1588.62,961.071ZM1686.41,945.766C1708.24,945.766 1725.97,963.492 1725.97,985.325C1725.97,1007.16 1708.24,1024.88 1686.41,1024.88C1664.58,1024.88 1646.85,1007.16 1646.85,985.325C1646.85,963.492 1664.58,945.766 1686.41,945.766ZM1685.61,968.112C1674.99,968.112 1666.37,976.917 1666.37,987.761C1666.37,998.606 1674.99,1007.41 1685.61,1007.41C1696.23,1007.41 1704.85,998.606 1704.85,987.761C1704.85,976.917 1696.23,968.112 1685.61,968.112Z" style="fill:url(#_Linear1);"/>
                </g>
                <g transform="matrix(4.73825,0,0,2.39812,-5920.49,-1397.01)">
                    <ellipse cx="1626.85" cy="1136.85" rx="13.523" ry="33.811" style="fill:url(#_Linear2);"/>
                </g>
                <g transform="matrix(2.99737,0,0,2.92552,-3052.63,-2048.35)">
                    <path d="M1614.1,1071.44C1649.28,1071.44 1677.85,1108.09 1677.85,1153.23C1677.85,1198.37 1649.28,1235.02 1614.1,1235.02C1578.91,1235.02 1550.34,1198.37 1550.34,1153.23C1550.34,1108.09 1578.91,1071.44 1614.1,1071.44ZM1614.1,1098.11C1637.81,1098.11 1657.06,1122.81 1657.06,1153.23C1657.06,1183.65 1637.81,1208.35 1614.1,1208.35C1590.38,1208.35 1571.13,1183.65 1571.13,1153.23C1571.13,1122.81 1590.38,1098.11 1614.1,1098.11Z" style="fill:url(#_Linear3);"/>
                </g>
                <g transform="matrix(2.39812,0,0,2.39812,-2081.82,-1397.01)">
                    <path d="M1531.66,852.79L1537.87,869.255C1390.84,935.072 1333.04,1056.3 1365.24,1233.43L1471.69,1195.7C1464.39,1107.15 1478.14,1029.95 1535.23,987.659L1547.04,1002.48C1495.22,1047.58 1477.83,1115.51 1497.05,1207.71L1351.39,1255.85C1341.57,1227.56 1335.4,1196.9 1332.07,1164.4C1330.85,1127.37 1334.81,1090.8 1343.94,1054.7C1379.26,956.907 1441.74,889.495 1531.66,852.79Z" style="fill:url(#_Linear4);"/>
                </g>
            </g>
        </g>
    </g>
    <defs>
        <linearGradient id="_Linear1" x1="0" y1="0" x2="1" y2="0" gradientUnits="userSpaceOnUse" gradientTransform="matrix(543.822,0,0,543.822,1241.62,1210.91)"><stop offset="0" style="stop-color:rgb(197,255,2);stop-opacity:1"/><stop offset="0.18" style="stop-color:rgb(112,218,2);stop-opacity:1"/><stop offset="0.39" style="stop-color:rgb(33,184,2);stop-opacity:1"/><stop offset="1" style="stop-color:rgb(0,170,2);stop-opacity:1"/></linearGradient>
        <linearGradient id="_Linear2" x1="0" y1="0" x2="1" y2="0" gradientUnits="userSpaceOnUse" gradientTransform="matrix(27.0469,0,0,27.0469,1613.33,1136.85)"><stop offset="0" style="stop-color:rgb(152,255,194);stop-opacity:1"/><stop offset="1" style="stop-color:rgb(0,225,2);stop-opacity:1"/></linearGradient>
        <linearGradient id="_Linear3" x1="0" y1="0" x2="1" y2="0" gradientUnits="userSpaceOnUse" gradientTransform="matrix(127.51,0,0,127.51,1550.34,1153.23)"><stop offset="0" style="stop-color:rgb(199,255,15);stop-opacity:1"/><stop offset="1" style="stop-color:rgb(0,201,31);stop-opacity:1"/></linearGradient>
        <linearGradient id="_Linear4" x1="0" y1="0" x2="1" y2="0" gradientUnits="userSpaceOnUse" gradientTransform="matrix(215.184,0,0,215.184,1331.86,1054.32)"><stop offset="0" style="stop-color:rgb(90,215,0);stop-opacity:1"/><stop offset="1" style="stop-color:rgb(182,255,37);stop-opacity:1"/></linearGradient>
    </defs>
</svg>
